<svg width="236" height="48" viewBox="0 0 236 48" fill="none" xmlns="http://www.w3.org/2000/svg">
<rect width="236" height="48" rx="24" fill="#4C5865"/>
<path d="M78.3782 18.8L74.9702 25.376L71.6582 18.8H69.4342L73.8982 27.152L73.7222 27.424C73.2582 28.16 72.7142 28.464 72.0582 28.464C71.7222 28.464 71.3702 28.384 70.9702 28.256L70.4582 29.888C71.0182 30.128 71.5782 30.24 72.1062 30.24C73.4662 30.24 74.6982 29.472 75.5622 27.84L80.4262 18.8H78.3782ZM84.8961 30.112C86.5601 30.112 87.8881 29.392 88.5441 28.112L87.0081 27.216C86.4961 28.032 85.7281 28.4 84.8801 28.4C83.4081 28.4 82.2881 27.392 82.2881 25.728C82.2881 24.08 83.4081 23.056 84.8801 23.056C85.7281 23.056 86.4961 23.424 87.0081 24.24L88.5441 23.344C87.8881 22.048 86.5601 21.36 84.8961 21.36C82.1921 21.36 80.2721 23.168 80.2721 25.728C80.2721 28.288 82.1921 30.112 84.8961 30.112ZM96.9948 21.456H88.9948V23.152H92.0028V30H94.0028V23.152H96.9948V21.456ZM101.63 21.36C100.254 21.36 98.9256 21.712 98.0136 22.416L98.7976 23.872C99.4376 23.344 100.43 23.024 101.39 23.024C102.814 23.024 103.518 23.712 103.518 24.88V25.008H101.31C98.7176 25.008 97.7576 26.128 97.7576 27.552C97.7576 29.04 98.9896 30.112 100.942 30.112C102.222 30.112 103.15 29.696 103.63 28.96V30H105.518V24.992C105.518 22.528 104.094 21.36 101.63 21.36ZM101.358 28.656C100.334 28.656 99.7256 28.192 99.7256 27.472C99.7256 26.848 100.094 26.336 101.454 26.336H103.518V27.328C103.182 28.208 102.334 28.656 101.358 28.656ZM107.992 30H109.992V26.624H114.296V30H116.296V21.456H114.296V24.928H109.992V21.456H107.992V30ZM122.785 30.112C125.441 30.112 127.345 28.288 127.345 25.728C127.345 23.168 125.441 21.36 122.785 21.36C120.161 21.36 118.241 23.168 118.241 25.728C118.241 28.288 120.161 30.112 122.785 30.112ZM122.785 28.4C121.345 28.4 120.257 27.36 120.257 25.728C120.257 24.096 121.345 23.056 122.785 23.056C124.241 23.056 125.329 24.096 125.329 25.728C125.329 27.36 124.241 28.4 122.785 28.4ZM135.513 25.552C136.329 25.2 136.825 24.544 136.825 23.664C136.825 22.256 135.577 21.456 133.497 21.456H129.321V30H133.673C135.977 30 137.097 29.104 137.097 27.6C137.097 26.56 136.569 25.872 135.513 25.552ZM131.225 22.912H133.321C134.345 22.912 134.873 23.248 134.873 23.952C134.873 24.656 134.345 25.024 133.321 25.024H131.225V22.912ZM133.513 28.544H131.225V26.352H133.577C134.665 26.352 135.161 26.72 135.161 27.472C135.161 28.208 134.585 28.544 133.513 28.544ZM139.227 30H141.067L145.771 24.368V30H147.771V21.456H145.947L141.227 27.088V21.456H139.227V30ZM157.229 21.456H149.229V23.152H152.237V30H154.237V23.152H157.229V21.456ZM162.968 24.272L160.68 24.256V21.456H158.68V30L162.68 30.016C165.016 30.032 166.344 28.96 166.344 27.088C166.344 25.312 165.16 24.272 162.968 24.272ZM162.504 28.544L160.68 28.528V25.632L162.504 25.648C163.688 25.664 164.312 26.08 164.312 27.056C164.312 28.048 163.672 28.56 162.504 28.544Z" fill="#7D90A6"/>
</svg>
